HIERARCHY
ROOT Hips
{
	OFFSET 0.000000 0.000000 0.000000 
	CHANNELS 6 Xposition Yposition Zposition Yrotation Zrotation Xrotation 
	JOINT Lumbar
	{
		OFFSET 0.000000 0.000000 0.000000 
		CHANNELS 3 Zrotation Xrotation Yrotation
		JOINT Neck
		{
			OFFSET 0.000000 0.445665 0.000000 
			CHANNELS 3 Zrotation Xrotation Yrotation
			End Site
			{
				OFFSET 0.000000 0.227535 0.000000 
			}
		}
		JOINT RightShoulder
		{
			OFFSET 0.019635 0.377685 0.194865 
			CHANNELS 3 Zrotation Xrotation Yrotation
			JOINT RightElbow
			{
				OFFSET 0.000000 -0.243375 0.000000 
				CHANNELS 2 Zrotation Yrotation
				JOINT RightWrist
				{
					OFFSET 0.000000 -0.264825 0.000000 
					CHANNELS 2 Zrotation Xrotation
					End Site
					{
						OFFSET 0.006600 -0.176220 0.000990 
					}
				}
			}
		}
		JOINT LeftShoulder
		{
			OFFSET 0.019635 0.377685 -0.194865 
			CHANNELS 3 Zrotation Xrotation Yrotation
			JOINT LeftElbow
			{
				OFFSET 0.000000 -0.243375 0.000000 
				CHANNELS 2 Zrotation Yrotation
				JOINT LeftWrist
				{
					OFFSET 0.000000 -0.264825 0.000000 
					CHANNELS 2 Zrotation Xrotation
					End Site
					{
						OFFSET 0.006600 -0.176220 -0.000990 
					}
				}
			}
		}
	}
	JOINT RightHip
	{
		OFFSET 0.052140 -0.069960 0.075570 
		CHANNELS 3 Zrotation Xrotation Yrotation
		JOINT RightKnee
		{
			OFFSET 0.000000 -0.402270 0.000000 
			CHANNELS 1 Zrotation
			JOINT RightAnkle
			{
				OFFSET 0.000000 -0.404085 0.000000 
				CHANNELS 3 Zrotation Xrotation Yrotation
				End Site
				{
					OFFSET 0.204105 -0.089430 0.008415 
				}
			}
		}
	}
	JOINT LeftHip
	{
		OFFSET 0.052140 -0.069960 -0.075570 
		CHANNELS 3 Zrotation Xrotation Yrotation
		JOINT LeftKnee
		{
			OFFSET 0.000000 -0.402270 0.000000 
			CHANNELS 1 Zrotation
			JOINT LeftAnkle
			{
				OFFSET 0.000000 -0.404085 0.000000 
				CHANNELS 3 Zrotation Xrotation Yrotation
				End Site
				{
					OFFSET 0.204105 -0.089430 -0.008415 
				}
			}
		}
	}
}
MOTION
Frames: 19
Frame Time: 0.02
-0.00074 -6e-05 0.00012 23.2532 -31.76375 -6.90548 49.97789 1.27028 -3.91868 -1.3433 0.09252 -0.41962 -20.57505 -4.01332 -17.35239 35.21266 142.96177 17.40249 9.80739 -34.36169 11.13468 -1.11124 44.53996 -100.85832 10.24125 -1.60755 47.2089 0.25793 6.55622 -19.49032 -7.58781 -5.19453 -3.46225 49.92073 4.91882 0.49538 -24.97645 -7.16011 4.28328 2.96769
-0.00048 -2e-05 -5e-05 23.30288 -31.75407 -6.90488 49.98525 1.26862 -3.90365 -1.28639 0.07126 -0.41993 -20.51595 -4.50022 -15.68814 35.23462 137.64247 16.05797 8.90647 -33.85443 11.07288 -1.26839 44.68062 -100.80774 10.22401 -1.6001 47.16969 0.09456 5.63545 -19.49079 -7.51642 -5.10212 -3.4054 49.89254 4.94856 0.65757 -24.97791 -7.1511 4.27465 2.95665
-0.00021 3e-05 -0.00021 23.35245 -31.74443 -6.90428 49.99258 1.26694 -3.88885 -1.22948 0.05003 -0.42025 -20.45671 -4.98563 -14.02876 35.25652 132.33985 14.7178 8.00832 -33.34783 11.01161 -1.4261 44.82108 -100.75776 10.2073 -1.59264 47.1306 -0.06833 4.71734 -19.49126 -7.44524 -5.00998 -3.34871 49.86444 4.97823 0.81935 -24.97937 -7.1421 4.26605 2.94564
6e-05 7e-05 -0.00038 23.40198 -31.73479 -6.90368 49.99993 1.26528 -3.8739 -1.17272 0.02883 -0.42056 -20.39774 -5.47103 -12.36961 35.2784 127.037 13.37746 7.11017 -32.84198 10.95005 -1.58296 44.96135 -100.70742 10.19021 -1.5852 47.09151 -0.2312 3.79939 -19.49173 -7.37407 -4.91785 -3.29203 49.83633 5.00789 0.98105 -24.98083 -7.13311 4.25746 2.93464
0.00032 0.00012 -0.00055 23.45161 -31.72509 -6.90307 50.00729 1.26363 -3.85866 -1.116 0.0076 -0.42088 -20.33904 -5.95794 -10.70566 35.30035 121.71732 12.03265 6.20925 -32.33582 10.88783 -1.73881 45.10171 -100.65625 10.17237 -1.57781 47.05229 -0.39455 2.87885 -19.49218 -7.3027 -4.82546 -3.23518 49.80812 5.03761 1.14315 -24.98229 -7.1241 4.24884 2.9236
0.00059 0.00016 -0.00071 23.50103 -31.71558 -6.90251 50.01454 1.26188 -3.84477 -1.05868 -0.0136 -0.4212 -20.27867 -6.44018 -9.05593 35.32214 116.45084 10.70232 5.31696 -31.82831 10.82855 -1.90035 45.24237 -100.60877 10.15802 -1.57021 47.0135 -0.55647 1.96588 -19.4927 -7.23191 -4.73385 -3.17883 49.78029 5.06717 1.30426 -24.98375 -7.11514 4.24026 2.91265
0.00086 0.00021 -0.00088 23.5508 -31.70572 -6.90185 50.02206 1.26035 -3.82819 -1.00268 -0.03484 -0.4215 -20.22173 -6.9312 -7.3796 35.34419 111.08353 9.34445 4.40835 -31.32411 10.76345 -2.05045 45.38231 -100.55404 10.13679 -1.56302 46.97388 -0.72108 1.03876 -19.49308 -7.16004 -4.64076 -3.12155 49.75169 5.09701 1.46714 -24.98522 -7.10609 4.23162 2.90155
0.00112 0.00025 -0.00104 23.60031 -31.69617 -6.90128 50.02922 1.25861 -3.81409 -0.94538 -0.05604 -0.42183 -20.16163 -7.41428 -5.72746 35.36609 105.80845 8.01175 3.51468 -30.81678 10.70366 -2.21076 45.52283 -100.50574 10.12165 -1.55546 46.93504 -0.88323 0.12454 -19.49358 -7.08917 -4.54903 -3.06512 49.72384 5.12661 1.62844 -24.98667 -7.09712 4.22303 2.89058
0.00138 0.0003 -0.0012 23.6493 -31.68702 -6.90082 50.03641 1.25663 -3.80302 -0.88677 -0.0772 -0.42214 -20.09758 -7.88726 -4.10551 35.38747 100.64693 6.71018 2.63931 -30.30558 10.65061 -2.38518 45.66449 -100.46641 10.11504 -1.5474 46.89709 -1.04236 -0.77372 -19.49429 -7.01947 -4.45896 -3.00972 49.69678 5.15588 1.78769 -24.98815 -7.08823 4.21453 2.8798
0.00167 0.00035 -0.00139 23.70067 -31.67563 -6.89972 50.04484 1.25608 -3.77451 -0.83654 -0.09863 -0.4224 -20.05595 -8.41716 -2.31167 35.41084 94.83433 5.23056 1.65873 -29.81647 10.55955 -2.48332 45.80092 -100.37882 10.06262 -1.54206 46.85382 -1.21882 -1.76326 -19.494 -6.94289 -4.35935 -2.94838 49.66478 5.18694 1.95839 -24.98959 -7.07884 4.20561 2.868
0.0019 0.00038 -0.00152 23.74736 -31.66896 -6.9 50.04972 1.2525 -3.78279 -0.76809 -0.11945 -0.42288 -19.96725 -8.82768 -0.87948 35.43065 90.39431 4.12596 0.90018 -29.28099 10.54814 -2.73915 45.94751 -100.39086 10.10474 -1.53111 46.82189 -1.35872 -2.56049 -19.49566 -6.8809 -4.27987 -2.89956 49.64344 5.21428 2.10512 -24.99103 -7.07055 4.1975 2.8583
0.002 0.00036 -0.00151 23.77842 -31.6756 -6.90391 50.05204 1.24071 -3.89291 -0.65329 -0.13911 -0.42303 -19.74614 -8.90216 -0.45684 35.43587 89.76644 4.06587 0.75628 -28.61456 10.76222 -3.45882 46.12991 -100.69712 10.42599 -1.50366 46.82088 -1.39736 -2.82332 -19.504 -6.85861 -4.25608 -2.88534 49.65011 5.23084 2.18425 -24.99336 -7.06503 4.19207 2.85479
0.00204 0.00033 -0.00144 23.80539 -31.68707 -6.90925 50.04907 1.22591 -4.03961 -0.51927 -0.15807 -0.42357 -19.47845 -8.85859 -0.39401 35.43887 90.50891 4.37963 0.83439 -27.90227 11.05508 -4.33094 46.32128 -101.09963 10.83841 -1.47085 46.83163 -1.39953 -2.8947 -19.51403 -6.85104 -4.2524 -2.8836 49.66807 5.24381 2.23982 -24.99557 -7.0607 4.1873 2.8533
0.00209 0.00031 -0.00139 23.8359 -31.6959 -6.91404 50.04441 1.21236 -4.16923 -0.39203 -0.17698 -0.42455 -19.23407 -8.87429 -0.15551 35.44544 90.59374 4.51203 0.80731 -27.21333 11.30725 -5.11317 46.50306 -101.44438 11.19639 -1.44116 46.83671 -1.41892 -3.05751 -19.52242 -6.83689 -4.23929 -2.87601 49.68116 5.25877 2.30714 -24.99724 -7.05593 4.18196 2.85065
0.00222 0.00028 -0.00139 23.85887 -31.70602 -6.91837 50.05875 1.19911 -4.30165 -0.27408 -0.19741 -0.42293 -18.98016 -8.86504 0.03035 35.4393 90.82628 4.69292 0.79859 -26.51361 11.57988 -5.98329 46.70715 -101.8482 11.60993 -1.40836 46.84184 -1.43524 -3.19951 -19.53453 -6.82221 -4.22757 -2.8693 49.69163 5.27209 2.36929 -25.00132 -7.05057 4.17798 2.8491
0.00216 0.00025 -0.00127 23.89709 -31.71535 -6.92407 50.03009 1.18477 -4.43593 -0.13086 -0.21457 -0.4268 -18.73556 -8.88101 0.24133 35.46147 91.07885 4.86222 0.80456 -25.82559 11.82898 -6.70577 46.86812 -102.15217 11.92877 -1.38104 46.85134 -1.44965 -3.34168 -19.53927 -6.81225 -4.21754 -2.8636 49.7122 5.28812 2.43754 -25.00045 -7.04691 4.17106 2.84562
0.00173 0.00025 -0.0009 23.97399 -31.71533 -6.93254 49.90211 1.16616 -4.5746 0.06596 -0.22218 -0.44601 -18.52387 -8.98538 0.6045 35.5421 91.02165 4.89992 0.79326 -25.18067 11.98933 -6.98675 46.89757 -102.16003 11.97055 -1.36879 46.8562 -1.46461 -3.51229 -19.52373 -6.81055 -4.20891 -2.85857 49.74183 5.31137 2.52047 -24.98528 -7.04601 4.1581 2.83722
0.0011 0.00025 -0.0004 24.06723 -31.71574 -6.94252 49.72738 1.14697 -4.71224 0.28983 -0.22668 -0.47068 -18.32391 -9.12118 1.0064 35.65498 90.94229 4.9144 0.78965 -24.54955 12.12364 -7.11198 46.8853 -102.06806 11.91404 -1.36311 46.86814 -1.47937 -3.69271 -19.50079 -6.81334 -4.20102 -2.85398 49.78474 5.33773 2.6117 -24.96531 -7.0471 4.14174 2.82663
0.00047 0.00024 9e-05 24.15584 -31.71956 -6.95213 49.56251 1.12933 -4.84512 0.50864 -0.23298 -0.4927 -18.12139 -9.24918 1.3942 35.76651 90.89225 4.9448 0.78476 -23.91197 12.27339 -7.30767 46.89879 -102.01392 11.89626 -1.35456 46.88521 -1.49645 -3.8818 -19.48069 -6.81475 -4.19161 -2.84851 49.83149 5.36337 2.70453 -24.94787 -7.04829 4.12544 2.81645
